<svg xmlns="http://www.w3.org/2000/svg" width="151.216" height="124.281" viewBox="0 0 151.216 124.281">
  <g id="Group_5026" data-name="Group 5026" transform="translate(-978.892 -732.5)">
    <path id="Path_6134" data-name="Path 6134" d="M4.962,127.854H141.293a4.991,4.991,0,0,0,4.962-4.962v-99a4.991,4.991,0,0,0-4.962-4.962H73.245a4.463,4.463,0,0,1-4.253-2.6L64.976,8.3a4.978,4.978,0,0,0-4.253-2.6H4.962A4.845,4.845,0,0,0,0,10.662V122.893A4.991,4.991,0,0,0,4.962,127.854Z" transform="translate(978.892 726.8)" fill="#5683f8"/>
    <path id="Path_6135" data-name="Path 6135" d="M7.088,128.754H141.056a4.991,4.991,0,0,0,4.962-4.962v-99a4.991,4.991,0,0,0-4.962-4.962H73.245a4.463,4.463,0,0,1-4.253-2.6L64.976,9.2a4.978,4.978,0,0,0-4.253-2.6H4.962A4.991,4.991,0,0,0,0,11.562v110.1A7.108,7.108,0,0,0,7.088,128.754Z" transform="translate(978.892 728.026)" fill="#2d62ed"/>
    <rect id="Rectangle_938" data-name="Rectangle 938" width="138.457" height="49.854" transform="translate(982.672 753.765)" fill="#f3f3f3"/>
    <rect id="Rectangle_939" data-name="Rectangle 939" width="1.89" height="49.854" transform="translate(982.672 753.765)" fill="#e2e2e2"/>
    <rect id="Rectangle_940" data-name="Rectangle 940" width="138.457" height="2.126" transform="translate(982.672 753.765)" fill="#e2e2e2"/>
    <path id="Path_6136" data-name="Path 6136" d="M151.216,22.688v84.587a6.962,6.962,0,0,1-7.088,7.088H7.088A6.962,6.962,0,0,1,0,107.275V34.029a6.962,6.962,0,0,1,7.088-7.088H76.081a6.435,6.435,0,0,0,4.962-2.126l7.088-7.088A6.8,6.8,0,0,1,93.092,15.6h51.035A7.108,7.108,0,0,1,151.216,22.688Z" transform="translate(978.892 740.291)" fill="#5683f8"/>
    <path id="Path_6137" data-name="Path 6137" d="M151.216,23.588v84.587a6.962,6.962,0,0,1-7.088,7.088H7.088A6.962,6.962,0,0,1,0,108.175V34.929a6.962,6.962,0,0,1,7.088-7.088H76.081a6.435,6.435,0,0,0,4.962-2.126l7.088-7.088A6.8,6.8,0,0,1,93.092,16.5h51.035A7.108,7.108,0,0,1,151.216,23.588Z" transform="translate(978.892 741.518)" fill="#2d62ed"/>
  </g>
</svg>
