<svg xmlns="http://www.w3.org/2000/svg" width="25.333" height="18.296" viewBox="0 0 25.333 18.296">
  <g id="eg" transform="translate(0 -5)">
    <path id="Path_957" data-name="Path 957" d="M25.333,20.481A2.815,2.815,0,0,1,22.518,23.3H2.815A2.815,2.815,0,0,1,0,20.481V7.815A2.815,2.815,0,0,1,2.815,5h19.7a2.815,2.815,0,0,1,2.815,2.815Z" fill="#141414"/>
    <path id="Path_958" data-name="Path 958" d="M0,13H25.333v7.037H0Z" transform="translate(0 -2.37)" fill="#eee"/>
    <path id="Path_959" data-name="Path 959" d="M22.518,5H2.815A2.815,2.815,0,0,0,0,7.815V10.63H25.333V7.815A2.815,2.815,0,0,0,22.518,5Z" fill="#ce1225"/>
    <path id="Path_960" data-name="Path 960" d="M14.75,21.393a.352.352,0,0,0,.165.264.176.176,0,0,0,.121.209,5.56,5.56,0,0,0,1.792.2,5.445,5.445,0,0,0,1.77-.187.321.321,0,0,0,.165-.253s.165-.088.154-.2-.231-.231-.231-.231a.371.371,0,0,0-.209-.2,8.583,8.583,0,0,1-1.595.2c-.946-.044-1.484-.187-1.66-.176a.324.324,0,0,0-.253.187S14.772,21.294,14.75,21.393Z" transform="translate(-4.371 -4.738)" fill="#bf9300"/>
    <path id="Path_961" data-name="Path 961" d="M14.922,21.412c-.009.065.132.209.132.209a.224.224,0,0,0,.143.209,6.649,6.649,0,0,0,1.671.143,6.745,6.745,0,0,0,1.693-.132.758.758,0,0,0,.143-.209s.154-.11.143-.2-.231-.143-.231-.143a.606.606,0,0,0-.135-.187,8.639,8.639,0,0,1-1.558.22,7.1,7.1,0,0,1-1.66-.231c-.1.011-.165.2-.165.2s-.165.045-.177.122Z" transform="translate(-4.421 -4.768)" fill="#eee"/>
    <path id="Path_962" data-name="Path 962" d="M18.91,14.843s-.022-.517-.495-.451-.506.3-1.012.352l-.1.01a2.246,2.246,0,0,1-.138-.714c0-.33.1-.473-.242-.638s-.407-.011-.407-.011-.264-.132-.385-.033-.055.352,0,.275.275.143.275.143a1.426,1.426,0,0,1-.282.981c-.05,0-.09-.007-.146-.013-.506-.055-.539-.286-1.012-.352s-.495.451-.495.451l-.187,3.991.385-.3,0-.047.8-.711.134-.134-.331.969s-.506-.033-.363.374c0,0,.077-.231.209-.187s.517.143.517.143l.132.209L15.929,19l.517-.022s.165.044.154.187a.314.314,0,0,0,.026-.2l.156-.011a.313.313,0,0,0,.024.21c-.011-.143.154-.187.154-.187l.517.022.165.154.132-.209s.384-.1.516-.143.209.187.209.187c.143-.407-.363-.374-.363-.374l-.316-.924.089.089.8.711,0,.047.385.3-.186-3.992Zm-2.186,2.419a2.39,2.39,0,0,1-.859-1.726,1.847,1.847,0,0,0,.847-.275,1.371,1.371,0,0,0,.868.253A2.339,2.339,0,0,1,16.723,17.263Zm1.813-2.573-.671.638-.113.045a1.6,1.6,0,0,1-1.031-.309,2.212,2.212,0,0,1-1.044.33l-.094-.037-.742-.666-.195.08a.232.232,0,0,1,.294-.223c.4.057.561.275.979.319l.118.012L16,14.931a1.256,1.256,0,0,0,.231-.034l.08.008-.036.125a.989.989,0,0,0,.2-.108l.183.018L16.7,15l.139-.07.094-.009a1.482,1.482,0,0,0,.2.089l.022-.11a.566.566,0,0,0,.264.066.394.394,0,0,1-.058-.089l.1-.011c.418-.044.581-.262.979-.319a.232.232,0,0,1,.294.223l-.2-.079Z" transform="translate(-4.231 -2.466)" fill="#bf9300"/>
    <path id="Path_963" data-name="Path 963" d="M16.931,18.655l-.4,1.506-.659-.132.682-1.935Zm.492,0,.4,1.506.66-.132L17.8,18.094Z" transform="translate(-4.704 -3.88)" fill="#eee"/>
    <path id="Path_964" data-name="Path 964" d="M16.766,16.581a3.144,3.144,0,0,0,.341,1.132V16.438a1.429,1.429,0,0,1-.341.143Zm1.374.022a3.144,3.144,0,0,1-.341,1.132V16.46a1.4,1.4,0,0,0,.341.143Z" transform="translate(-4.968 -3.389)" fill="#bf9300"/>
    <path id="Path_965" data-name="Path 965" d="M16.953,13.57s.077-.077.3.077c.143.1.27.176.27.176a.267.267,0,0,1,.222-.073c.132.022.058.205.08.59a.908.908,0,0,0,.176.55l-.187-.11.011.121-.209-.1-.1.143-.1-.154-.16.1-.049-.131-.187.1a1.457,1.457,0,0,0,.3-.715,3.209,3.209,0,0,0-.022-.363s-.175-.219-.341-.208Z" transform="translate(-5.023 -2.534)" fill="#eee"/>
    <path id="Path_966" data-name="Path 966" d="M15.515,21.65c-.126.075-.077.121,0,.154a7.822,7.822,0,0,0,1.474.11,5.47,5.47,0,0,0,1.627-.132c.077-.044.088-.121-.044-.143s-.792.088-1.595.088c-.989,0-1.407-.11-1.462-.077Z" transform="translate(-4.574 -4.929)" fill="#bf9300"/>
  </g>
</svg>
