<svg xmlns="http://www.w3.org/2000/svg" width="179.132" height="164.224" viewBox="0 0 179.132 164.224">
  <g id="Group_5025" data-name="Group 5025" transform="translate(-1329 -208)">
    <g id="Group_4707" data-name="Group 4707" transform="translate(1329 225)">
      <path id="Path_6134" data-name="Path 6134" d="M5.878,150.405h161.5a5.912,5.912,0,0,0,5.878-5.878V27.252a5.912,5.912,0,0,0-5.878-5.878H86.767A5.287,5.287,0,0,1,81.729,18.3L76.971,8.779A5.9,5.9,0,0,0,71.933,5.7H5.878A5.74,5.74,0,0,0,0,11.578v132.95A5.912,5.912,0,0,0,5.878,150.405Z" transform="translate(0 -5.7)" fill="#5683f8"/>
      <path id="Path_6135" data-name="Path 6135" d="M8.4,151.305H167.1a5.912,5.912,0,0,0,5.878-5.878V28.152a5.912,5.912,0,0,0-5.878-5.878H86.767A5.287,5.287,0,0,1,81.729,19.2L76.971,9.679A5.9,5.9,0,0,0,71.933,6.6H5.878A5.912,5.912,0,0,0,0,12.478V142.909A8.421,8.421,0,0,0,8.4,151.305Z" transform="translate(0 -4.081)" fill="#2d62ed"/>
      <path id="Path_6136" data-name="Path 6136" d="M179.132,24V124.2a8.247,8.247,0,0,1-8.4,8.4H8.4A8.247,8.247,0,0,1,0,124.2V37.432a8.247,8.247,0,0,1,8.4-8.4H90.126A7.623,7.623,0,0,0,96,26.516l8.4-8.4a8.056,8.056,0,0,1,5.878-2.519h60.457A8.421,8.421,0,0,1,179.132,24Z" transform="translate(0 12.11)" fill="#5683f8"/>
    </g>
    <path id="Path_6138" data-name="Path 6138" d="M216.6,166.022c0,2.42-2.366,4.395-5.265,4.395H94.965c-2.9,0-5.265-1.974-5.265-4.395V24.695c0-2.42,2.366-4.395,5.265-4.395h87.791V48.546H216.6Z" transform="translate(1262.517 192.254)" fill="#fff"/>
    <path id="Path_6139" data-name="Path 6139" d="M172.622,6H85.981C80.144,6,75.4,10.012,75.4,14.948V156.276c0,4.936,4.744,8.948,10.581,8.948H200.825c5.836,0,10.581-4.012,10.581-8.948V38.832Zm33.4,150.276c0,2.42-2.335,4.395-5.2,4.395H85.981c-2.862,0-5.2-1.974-5.2-4.395V14.948c0-2.42,2.335-4.395,5.2-4.395h86.642V38.8h33.4Z" transform="translate(1272.264 202)" fill="#f3bb2f"/>
    <path id="Path_6140" data-name="Path 6140" d="M152.024,6V38.832h37.948Zm48.743,141.646H46.1V102.172c0-3.121,2.911-5.637,6.521-5.637H194.209c3.611,0,6.521,2.516,6.521,5.637v45.475Z" transform="translate(1292.233 202)" fill="#dea21e"/>
    <path id="Path_6141" data-name="Path 6141" d="M189.972,450.8v6.21l10.795-6.21ZM56.9,450.8v6.21L46.1,450.8Z" transform="translate(1292.233 -101.154)" fill="#b87d0f"/>
    <path id="Path_6142" data-name="Path 6142" d="M64.1,308.4H207.271v39.647H64.1Z" transform="translate(1279.965 -4.101)" fill="#f3bb2f"/>
    <g id="Group_4715" data-name="Group 4715" transform="translate(1370.723 226.852)">
      <path id="Path_6143" data-name="Path 6143" d="M173.1,69.467H116.734a2.134,2.134,0,1,1,0-4.267H173.1a2.134,2.134,0,1,1,0,4.267Zm0,10.19H116.734a2.134,2.134,0,1,1,0-4.267H173.1a2.134,2.134,0,1,1,0,4.267Zm29.775,10.159h-86.14a2.134,2.134,0,0,1,0-4.267h86.14a2.134,2.134,0,1,1,0,4.267Zm0,10.19h-86.14a2.134,2.134,0,0,1,0-4.267h86.14a2.134,2.134,0,1,1,0,4.267Zm0,10.19h-86.14a2.134,2.134,0,0,1,0-4.267h86.14a2.134,2.134,0,1,1,0,4.267Zm0,10.159h-86.14a2.134,2.134,0,0,1,0-4.267h86.14a2.134,2.134,0,1,1,0,4.267Zm0,10.19h-86.14a2.134,2.134,0,0,1,0-4.267h86.14a2.134,2.134,0,1,1,0,4.267Z" transform="translate(-114.6 -65.2)" fill="#f3bb2f"/>
    </g>
    <g id="Group_4716" data-name="Group 4716" transform="translate(1381.943 315.317)">
      <path id="Path_6144" data-name="Path 6144" d="M161.532,349.687a7.326,7.326,0,0,1-1.242,4.458,4.153,4.153,0,0,1-3.535,1.688,3.657,3.657,0,0,1-1.592-.35,3.937,3.937,0,0,1-1.21-.987v5.828H150.1V343.287h3.63l.127,1.337a3.734,3.734,0,0,1,1.21-1.146,3.085,3.085,0,0,1,1.624-.414,4.05,4.05,0,0,1,3.535,1.751,7.947,7.947,0,0,1,1.242,4.649v.223Zm-3.821-.255a6.139,6.139,0,0,0-.446-2.516,1.542,1.542,0,0,0-1.465-.955,2.176,2.176,0,0,0-1.083.255,1.652,1.652,0,0,0-.7.7v5.159a1.711,1.711,0,0,0,.732.605,2.8,2.8,0,0,0,1.115.191,1.587,1.587,0,0,0,1.465-.828,5.2,5.2,0,0,0,.446-2.325v-.287Zm14.266,6.114a4.687,4.687,0,0,1-.382-.892,5.265,5.265,0,0,1-.223-1.019,4.356,4.356,0,0,1-1.242,1.56,2.97,2.97,0,0,1-1.911.573,4.277,4.277,0,0,1-3.025-.987,3.459,3.459,0,0,1-1.083-2.707,3.294,3.294,0,0,1,1.369-2.834,7.141,7.141,0,0,1,4.172-.987h1.592v-.892a1.779,1.779,0,0,0-.382-1.21,1.448,1.448,0,0,0-1.146-.414,1.138,1.138,0,0,0-1.306,1.306h-3.726l-.032-.064a3.152,3.152,0,0,1,1.4-2.8,6.226,6.226,0,0,1,3.917-1.146,5.631,5.631,0,0,1,3.694,1.146,3.9,3.9,0,0,1,1.4,3.248v4.649a10.7,10.7,0,0,0,.159,1.815,8.517,8.517,0,0,0,.51,1.688l-3.758-.032Zm-2.707-2.484a2.256,2.256,0,0,0,1.242-.318,2.025,2.025,0,0,0,.764-.8v-1.624h-1.56a1.827,1.827,0,0,0-1.337.446,1.513,1.513,0,0,0-.414,1.115,1.176,1.176,0,0,0,.35.86A1.388,1.388,0,0,0,169.271,353.063Zm9.076-3.63a7.948,7.948,0,0,1,1.242-4.649,4.05,4.05,0,0,1,3.535-1.751,3.457,3.457,0,0,1,1.72.446,4.166,4.166,0,0,1,1.274,1.306l.255-1.529h3.407v12.165a4.514,4.514,0,0,1-1.656,3.758,7.147,7.147,0,0,1-4.586,1.337,9.115,9.115,0,0,1-2.006-.255,10.683,10.683,0,0,1-2.006-.7l.669-2.834a8.558,8.558,0,0,0,1.592.541,7.192,7.192,0,0,0,1.751.191,2.814,2.814,0,0,0,1.815-.478,1.826,1.826,0,0,0,.605-1.56v-.955a3.635,3.635,0,0,1-1.21,1.019,3.515,3.515,0,0,1-1.56.35,4.153,4.153,0,0,1-3.535-1.688,7.326,7.326,0,0,1-1.242-4.458v-.255Zm3.821.255a5.105,5.105,0,0,0,.446,2.325,1.519,1.519,0,0,0,1.5.828,2.857,2.857,0,0,0,1.083-.191,1.841,1.841,0,0,0,.732-.573v-5.191a2.1,2.1,0,0,0-.732-.669,2.137,2.137,0,0,0-1.051-.223,1.584,1.584,0,0,0-1.5.955,5.6,5.6,0,0,0-.446,2.484v.255Zm16.878,6.114a5.757,5.757,0,0,1-4.395-1.688,6.025,6.025,0,0,1-1.592-4.3v-.446a6.907,6.907,0,0,1,1.5-4.586,5.253,5.253,0,0,1,4.331-1.751,4.965,4.965,0,0,1,3.853,1.5,5.742,5.742,0,0,1,1.369,4.076v2.006h-7.07l-.032.064a2.264,2.264,0,0,0,.732,1.56,2.424,2.424,0,0,0,1.783.605,7.654,7.654,0,0,0,1.847-.191,15.167,15.167,0,0,0,1.688-.573l.923,2.357a7.861,7.861,0,0,1-2.134.987,9.934,9.934,0,0,1-2.8.382Zm-.159-9.808a1.627,1.627,0,0,0-1.369.573,3.14,3.14,0,0,0-.51,1.592l.032.064h3.344v-.287a2.5,2.5,0,0,0-.35-1.433A1.244,1.244,0,0,0,198.886,345.993Zm14.935,6.114a1,1,0,0,0-.51-.828,5.457,5.457,0,0,0-1.879-.637,7.35,7.35,0,0,1-3.248-1.306,2.912,2.912,0,0,1-1.083-2.42,3.465,3.465,0,0,1,1.369-2.771A5.572,5.572,0,0,1,212.166,343a6.415,6.415,0,0,1,3.917,1.083,3.318,3.318,0,0,1,1.4,2.834l-.032.064h-3.726a1.667,1.667,0,0,0-.35-1.115,1.621,1.621,0,0,0-1.21-.382,1.56,1.56,0,0,0-1.019.318,1.01,1.01,0,0,0-.414.828,1,1,0,0,0,.478.828,5.089,5.089,0,0,0,1.911.605,7.458,7.458,0,0,1,3.344,1.338,3,3,0,0,1,1.083,2.484,3.254,3.254,0,0,1-1.465,2.739,6.379,6.379,0,0,1-3.885,1.083,5.805,5.805,0,0,1-3.981-1.274,3.512,3.512,0,0,1-1.4-2.834l.032-.064h3.471a1.5,1.5,0,0,0,.541,1.274,2.392,2.392,0,0,0,1.433.382,2.079,2.079,0,0,0,1.178-.287.869.869,0,0,0,.35-.8Z" transform="translate(-150.1 -343)" fill="#fff"/>
    </g>
    <path id="Path_6145" data-name="Path 6145" d="M179.132,24.9V125.1a8.247,8.247,0,0,1-8.4,8.4H8.4A8.247,8.247,0,0,1,0,125.1V38.332a8.247,8.247,0,0,1,8.4-8.4H90.126A7.623,7.623,0,0,0,96,27.416l8.4-8.4a8.056,8.056,0,0,1,5.878-2.519h60.457A8.421,8.421,0,0,1,179.132,24.9Z" transform="translate(1329 238.729)" fill="#2d62ed"/>
  </g>
</svg>
